<mxfile host="app.diagrams.net" agent="Mozilla/5.0 (Windows NT 10.0; Win64; x64) AppleWebKit/537.36 (KHTML, like Gecko) Chrome/129.0.0.0 Safari/537.36" version="24.7.17">
  <diagram name="Halaman-1" id="cf1yF2U_dGBSUryv41ZI">
    <mxGraphModel dx="880" dy="1637" grid="1" gridSize="10" guides="1" tooltips="1" connect="1" arrows="1" fold="1" page="1" pageScale="1" pageWidth="827" pageHeight="1169" math="0" shadow="0">
      <root>
        <mxCell id="0" />
        <mxCell id="1" parent="0" />
        <mxCell id="mc5F1-G-wqSv87o88hO0-1" value="START" style="ellipse;whiteSpace=wrap;html=1;aspect=fixed;" parent="1" vertex="1">
          <mxGeometry x="370" y="-40" width="110" height="110" as="geometry" />
        </mxCell>
        <mxCell id="mc5F1-G-wqSv87o88hO0-18" value="" style="edgeStyle=orthogonalEdgeStyle;rounded=0;orthogonalLoop=1;jettySize=auto;html=1;exitX=0.5;exitY=1;exitDx=0;exitDy=0;" parent="1" source="mc5F1-G-wqSv87o88hO0-1" edge="1">
          <mxGeometry relative="1" as="geometry">
            <mxPoint x="425.0999999999999" y="120" as="targetPoint" />
            <mxPoint x="425" y="70" as="sourcePoint" />
          </mxGeometry>
        </mxCell>
        <mxCell id="X638UUj9t-KVk5x9aYKu-13" style="edgeStyle=orthogonalEdgeStyle;rounded=0;orthogonalLoop=1;jettySize=auto;html=1;" edge="1" parent="1">
          <mxGeometry relative="1" as="geometry">
            <mxPoint x="426.5" y="270" as="targetPoint" />
            <mxPoint x="426.54999999999995" y="200" as="sourcePoint" />
          </mxGeometry>
        </mxCell>
        <mxCell id="X638UUj9t-KVk5x9aYKu-18" style="edgeStyle=orthogonalEdgeStyle;rounded=0;orthogonalLoop=1;jettySize=auto;html=1;" edge="1" parent="1">
          <mxGeometry relative="1" as="geometry">
            <mxPoint x="426.5" y="420" as="targetPoint" />
            <mxPoint x="426.5" y="340" as="sourcePoint" />
          </mxGeometry>
        </mxCell>
        <mxCell id="X638UUj9t-KVk5x9aYKu-25" value="NIM:24241175&lt;div&gt;A:75&lt;/div&gt;&lt;div&gt;T:24&lt;/div&gt;&lt;div&gt;L:1/2&lt;/div&gt;" style="shape=hexagon;perimeter=hexagonPerimeter2;whiteSpace=wrap;html=1;fixedSize=1;" vertex="1" parent="1">
          <mxGeometry x="351.5" y="120" width="147" height="80" as="geometry" />
        </mxCell>
        <mxCell id="X638UUj9t-KVk5x9aYKu-26" value="A:75" style="shape=parallelogram;perimeter=parallelogramPerimeter;whiteSpace=wrap;html=1;fixedSize=1;" vertex="1" parent="1">
          <mxGeometry x="347.5" y="270" width="155" height="70" as="geometry" />
        </mxCell>
        <mxCell id="X638UUj9t-KVk5x9aYKu-29" style="edgeStyle=orthogonalEdgeStyle;rounded=0;orthogonalLoop=1;jettySize=auto;html=1;" edge="1" parent="1" source="X638UUj9t-KVk5x9aYKu-27">
          <mxGeometry relative="1" as="geometry">
            <mxPoint x="425" y="560" as="targetPoint" />
          </mxGeometry>
        </mxCell>
        <mxCell id="X638UUj9t-KVk5x9aYKu-27" value="T: 24" style="shape=parallelogram;perimeter=parallelogramPerimeter;whiteSpace=wrap;html=1;fixedSize=1;" vertex="1" parent="1">
          <mxGeometry x="345" y="420" width="160" height="80" as="geometry" />
        </mxCell>
        <mxCell id="X638UUj9t-KVk5x9aYKu-30" style="edgeStyle=orthogonalEdgeStyle;rounded=0;orthogonalLoop=1;jettySize=auto;html=1;" edge="1" parent="1" source="X638UUj9t-KVk5x9aYKu-28">
          <mxGeometry relative="1" as="geometry">
            <mxPoint x="421" y="710" as="targetPoint" />
          </mxGeometry>
        </mxCell>
        <mxCell id="X638UUj9t-KVk5x9aYKu-28" value="L: 1/2" style="shape=parallelogram;perimeter=parallelogramPerimeter;whiteSpace=wrap;html=1;fixedSize=1;" vertex="1" parent="1">
          <mxGeometry x="343.5" y="560" width="155" height="80" as="geometry" />
        </mxCell>
        <mxCell id="X638UUj9t-KVk5x9aYKu-34" style="edgeStyle=orthogonalEdgeStyle;rounded=0;orthogonalLoop=1;jettySize=auto;html=1;" edge="1" parent="1" source="X638UUj9t-KVk5x9aYKu-33" target="X638UUj9t-KVk5x9aYKu-35">
          <mxGeometry relative="1" as="geometry">
            <mxPoint x="421" y="850" as="targetPoint" />
          </mxGeometry>
        </mxCell>
        <mxCell id="X638UUj9t-KVk5x9aYKu-33" value="2.160" style="rounded=0;whiteSpace=wrap;html=1;" vertex="1" parent="1">
          <mxGeometry x="351" y="710" width="140" height="70" as="geometry" />
        </mxCell>
        <mxCell id="X638UUj9t-KVk5x9aYKu-35" value="Selesai" style="ellipse;whiteSpace=wrap;html=1;" vertex="1" parent="1">
          <mxGeometry x="361" y="850" width="120" height="80" as="geometry" />
        </mxCell>
      </root>
    </mxGraphModel>
  </diagram>
</mxfile>
